#!OML:ASF F:\VICON\USERDATA\INSTALL\rory3\rory3.ASF
:FULLY-SPECIFIED
:DEGREES
38
root -0.6800792120493742 18.56043620796004 7.640592899299069 5.865251155228527 0.7280060636830528 5.303428274249423
lfemur 1.517988684209051 -4.782286821380312 -29.859834936447292
ltibia 49.008882296270166
lfoot 26.831237986627958 -19.258622496380163
ltoes -12.94815673729928
rfemur -35.578741032349875 7.00334218829411 21.208467558224097
rtibia 33.7902356854319
rfoot 12.777961689071462 -6.582463766209528
rtoes -13.335469719521576
lowerback 14.153676775723106 -1.8933345294320585 -2.863905081497604
upperback -0.8621717330449061 -3.0253354964404444 1.1185528248544
thorax -8.562721578395374 -1.1914861684125544 3.222557952761572
lowerneck -18.825278680944976 -3.187039483855854 -2.306133620763389
upperneck 16.200018004703242 -3.981533386838345 2.990512699445225
head 8.516912124760646 -1.6437537426141902 0.7691181514619897
lclavicle 1.1554804460415843e-16 1.671025067353768e-15
lhumerus -41.71158293888933 -11.132455510083076 87.39427455035872
lradius 116.24090118318861
lwrist 35.893768207949655
lhand -29.40791144899198 -1.9305465271562765
lfingers 7.125019999999998
lthumb -2.58020863950201 27.938975782425807
rclavicle 1.1579091308329057e-16 1.671790273495881e-15
rhumerus -62.6971002447753 4.703185218873015 -94.44056386660706
rradius 108.84377659896354
rwrist -21.441997695523522
rhand -17.370049824937663 40.412585861923084
rfingers 7.125019999999998
rthumb 8.885256387343492 11.008759354132565
39
root -0.642513899157654 18.468965523762183 8.580721752561903 5.486263666472576 0.2997816720700397 4.763986982916347
lfemur -0.3619138314669179 -4.557539336659955 -29.011938393075884
ltibia 57.153051035051206
lfoot 26.087340234400322 -19.340316597478555
ltoes -8.268665934605506
rfemur -33.936550909319905 6.9424828866795005 22.69772216457563
rtibia 33.07748936490931
rfoot 11.49737618137691 -6.050753609805459
rtoes -12.970769719066855
lowerback 14.44563366759139 -1.8466708765234485 -2.3372075043594
upperback -0.22580942380404184 -2.900171533587896 1.0740500558451882
thorax -8.294634152969065 -1.1515001722514486 2.9737623401298086
lowerneck -19.390520918094982 -3.249204000303128 -2.26450119517804
upperneck 15.985286711623475 -4.062114893069028 2.8650659741181084
head 8.429315878198837 -1.704760806691184 0.7469601789646246
lclavicle 1.1669250406635233e-16 1.6718022754573954e-15
lhumerus -42.393411040622 -10.889656966033206 87.96330410307105
lradius 110.6214578413796
lwrist 35.73675136691589
lhand -29.607074055434737 -2.049764130595328
lfingers 7.125019999999998
lthumb -2.6903389114586296 27.7971318050781
rclavicle 1.1421100568729785e-16 1.6706431854168547e-15
rhumerus -61.481213764704535 4.726489332768327 -94.2992151808783
rradius 108.91176658059588
rwrist -21.039942291797608
rhand -17.436238160211584 40.457344853450515
rfingers 7.125019999999998
rthumb 8.86206387179454 11.023291317888637
40
root -0.5973568115397496 18.308653371604965 9.37120177911245 4.756683765399183 -0.4669169211392036 3.8776238250423987
lfemur -2.0828808860281995 -3.8895877874580016 -27.943053341910396
ltibia 65.51999933720523
lfoot 25.08678237313938 -18.808036589525628
ltoes -4.311610241043145
rfemur -32.52430660813438 6.155425359786826 24.448728038562393
rtibia 34.87679507122239
rfoot 8.943400243805202 -4.9480705684126125
rtoes -10.517116063816308
lowerback 14.951996109625728 -1.7085859749197088 -1.962976720782462
upperback 0.04201147506229186 -2.6579757127672226 1.0830700072869808
thorax -8.393054094240624 -1.025041673545954 2.6897178572839224
lowerneck -19.45488459841573 -3.249357259041177 -2.2056003397431225
upperneck 15.532320499489977 -4.057058657874979 2.7345291403026133
head 8.146011195460709 -1.7501170531915506 0.7575233431946073
lclavicle 1.1591082352309204e-16 1.6712719875880756e-15
lhumerus -43.21974851173528 -10.371001073473371 88.86138274098793
lradius 104.27770308933636
lwrist 35.452546530031
lhand -29.910945769701414 -2.519520917493854
lfingers 7.125019999999998
lthumb -3.0038222246418957 27.303657464519084
rclavicle 1.1219735655373086e-16 1.6692153748282237e-15
rhumerus -59.9302635906358 5.053714814426141 -94.24585897717255
rradius 108.47906409234415
rwrist -20.66388480431023
rhand -17.45305951999112 40.55685114444291
rfingers 7.125019999999998
rthumb 8.84430289354479 11.205218154641434
41
root -0.5727928468658572 18.10602043635867 10.493903505927651 4.085189762797896 -1.9759853369842553 2.366444466117692
lfemur -4.0681167968554846 -1.6018979597111684 -25.668588488933857
ltibia 73.94195297632467
lfoot 23.51124780874159 -17.665961469326003
ltoes -3.4774397181134358
rfemur -31.255363768293158 6.126317775289232 26.460044500781102
rtibia 37.17261764726773
rfoot 4.535513422937248 -4.0230263402260995
rtoes -6.074151159492439
lowerback 15.608442587360836 -1.333315966081737 -1.069715826864571
upperback -0.2388617252354893 -2.033481848727661 1.3539057918822102
thorax -9.432388094919107 -0.7732960606362349 2.1195221945895217
lowerneck -18.55433930685217 -3.3125493543345446 -2.0859477405497002
upperneck 14.873350634096902 -4.1731987243244255 2.513763197477169
head 7.809982866497814 -1.8515396610888644 0.685233971804863
lclavicle 1.1699258135525915e-16 1.6720061634065454e-15
lhumerus -44.23564438187749 -9.613300106152437 89.95654675991317
lradius 97.9700955979041
lwrist 35.279010677387824
lhand -30.523624379675308 -3.242969827593204
lfingers 7.125019999999998
lthumb -3.6632478020675054 26.676833422839284
rclavicle 1.1124748636319988e-16 1.6685922088231183e-15
rhumerus -57.937199531625545 5.6366166726294855 -94.20878342247777
rradius 107.6902383295347
rwrist -20.52741901845374
rhand -17.489045180512104 40.570819150193586
rfingers 7.125019999999998
rthumb 8.769024953878146 11.215240258992983
42
root -0.5468807493778376 17.8608196725861 11.223974232051434 3.4293920129978837 -3.8379408871854324 1.6616055790005806
lfemur -6.20780087215266 1.8263835800237251 -23.660001391924602
ltibia 81.78848556118318
lfoot 21.434644274458226 -16.129368930942956
ltoes -4.350664449893501
rfemur -29.62025581299745 6.398491282103324 27.47294598439539
rtibia 40.472917664079375
rfoot -1.4549522536532633 -4.184771962406321
rtoes -1.808360857683145
lowerback 16.220148136310787 -0.7430593916001503 -1.0115940473073377
upperback -0.14722550991810252 -1.241015963055335 1.5300185787089773
thorax -9.407859215890975 -0.47604297082836156 2.0351591485546727
lowerneck -18.80864402930657 -3.4440252486864247 -2.0090778475702025
upperneck 14.680526732495741 -4.467072919805675 2.3666307535711884
head 7.7048585178844755 -2.014789071147228 0.6030901902108898
lclavicle 1.1656998316087307e-16 1.6717191213859354e-15
lhumerus -45.50993223836704 -8.822424614361093 91.03447336451946
lradius 92.31727428260358
lwrist 35.34472205221162
lhand -31.27643571624637 -4.044392831138156
lfingers 7.125019999999998
lthumb -4.500550656187789 26.032103770714286
rclavicle 1.1191197055643045e-16 1.6691165667545886e-15
rhumerus -55.544225979899544 6.452197857043997 -94.19074537328675
rradius 106.76332657025422
rwrist -20.6048130797575
rhand -17.5376858677438 40.54430601526465
rfingers 7.125019999999998
rthumb 8.695850906105385 11.252795153903872
43
root -0.5193038577771333 17.592091776733763 12.4066848669842 3.0581149022373917 -5.257124518249509 1.5450156196160811
lfemur -8.816341282795118 5.418950997649685 -21.97591904724191
ltibia 89.12673780378205
lfoot 18.962397284832385 -14.702598650052808
ltoes -5.2181824761507
rfemur -28.7970174008176 7.519923668071962 27.668820289630883
rtibia 45.14062817058793
rfoot -7.788024632443604 -5.616173813251394
rtoes 0.3687249829778638
lowerback 16.468527701556894 -0.18310671866973072 -1.3198077840122457
upperback 0.02809132407260939 -0.4653144804012499 1.676168524853165
thorax -9.279222015827376 -0.16413286301073293 1.9500380940855178
lowerneck -19.554107346624203 -3.500856719020147 -1.8147748021040193
upperneck 14.539091402815261 -4.571341085428979 2.10737081780492
head 7.675054017886241 -2.0849717354390207 0.482330551784369
lclavicle 1.1717525958685134e-16 1.672130016648476e-15
lhumerus -46.940628716780544 -8.065253766280861 91.89260206106286
lradius 87.29608688302567
lwrist 35.46750014891197
lhand -31.70864370027999 -4.622357239439291
lfingers 7.125019999999998
lthumb -5.002120443630279 25.84512502160183
rclavicle 1.0937357714469298e-16 1.66759866833504e-15
rhumerus -52.824553091972476 7.398137312832954 -94.18143835197604
rradius 106.00301540560184
rwrist -20.875057548524104
rhand -17.585677769917773 40.53482567844323
rfingers 7.125019999999998
rthumb 8.578939022017847 11.167944456013604
